# xmcd
#
# Track frame offsets: 
#        150
#        21653
#        46748
#        66564
#        89088
#        118651
#        158110
#        183619
#        220975
#        240863
#        260223
#        287357
#        328188
#
# Disc length: 4721 seconds
#
# Revision: 0
# Processed by: cddbd v1.5.2PL0 Copyright (c) Steve Scherf et al.
# Submitted via: ExactAudioCopyFreeDBPlugin 1.0
#
DISCID=c8126f0d
DTITLE=Studebaker John and The Hawks - Eternity's Descent
DYEAR=2016
DGENRE=Blues
TTITLE0=Same As Mine
TTITLE1=Up And Down The Line Again
TTITLE2=Not To Be Like You
TTITLE3=Hold Me Down
TTITLE4=My Life
TTITLE5=Ready To Rock
TTITLE6=I Feel Like Rockin'
TTITLE7=I Still Won
TTITLE8=Search This Life
TTITLE9=Passed And Gone
TTITLE10=Rock And Roll Before I Die
TTITLE11=Humanity
TTITLE12=Eternity's Descent
EXTD=
EXTT0=
EXTT1=
EXTT2=
EXTT3=
EXTT4=
EXTT5=
EXTT6=
EXTT7=
EXTT8=
EXTT9=
EXTT10=
EXTT11=
EXTT12=
PLAYORDER=
